<svg id="Layer_1" data-name="Layer 1" xmlns="http://www.w3.org/2000/svg" width="110" height="80" viewBox="0 0 110 80">
  <defs>
    <style>
      .cls-1 {
        fill: #0078d7;
      }
    </style>
  </defs>
  <title>Mail</title>
  <g>
    <path class="cls-1" d="M103.17,4.07H6.83a5.61,5.61,0,0,0-5.6,5.6V70.33a5.61,5.61,0,0,0,5.6,5.6h96.33a5.61,5.61,0,0,0,5.6-5.6V9.67A5.61,5.61,0,0,0,103.17,4.07Zm4.4,66.27a4.37,4.37,0,0,1-.72,2.4L74.36,39.91l-.85.84,32.54,32.87a4.36,4.36,0,0,1-2.88,1.1H6.83a4.36,4.36,0,0,1-2.31-.67l32-33.32-.87-.83L3.6,73.3a4.37,4.37,0,0,1-1.17-3V9.67a4.41,4.41,0,0,1,4.4-4.4h96.33a4.41,4.41,0,0,1,4.4,4.4Z"/>
    <polygon class="cls-1" points="55.2 43.01 9.24 11.21 8.56 12.2 55.19 44.46 102.27 12.83 101.6 11.83 55.2 43.01"/>
  </g>
</svg>
